# xmcd
#
# Track frame offsets:
#	150
#	21727
#	39398
#	56906
#	79335
#	103537
#	132328
#	156378
#	176468
#	198598
#	226061
#	244676
#	264901
#	284231
#	309913
#
# Disc length: 4369 seconds
#
# Revision: 1
# Processed by: cddbd v1.5.1PL0 Copyright (c) Steve Scherf et al.
# Submitted via: CDex 1.50Beta5
#
DISCID=d5110f0f
DTITLE=小田和正 - 自己ベスト
DYEAR=2002
DGENRE=
TTITLE0=キラキラ
TTITLE1=秋の気配
TTITLE2=愛を止めないで
TTITLE3=さよなら
TTITLE4=Yes-No
TTITLE5=言葉にできない
TTITLE6=緑の日々
TTITLE7=Oh!Yeah!
TTITLE8=ラブ・ストーリーは突然に
TTITLE9=my home town
TTITLE10=風の坂道
TTITLE11=伝えたいことがあるんだ
TTITLE12=緑の街
TTITLE13=風のように
TTITLE14=woh woh
EXTD=
EXTT0=
EXTT1=
EXTT2=
EXTT3=
EXTT4=
EXTT5=
EXTT6=
EXTT7=
EXTT8=
EXTT9=
EXTT10=
EXTT11=
EXTT12=
EXTT13=
EXTT14=
PLAYORDER=
